<svg xmlns="http://www.w3.org/2000/svg" viewBox="0 0 235.93 233.21"><defs><style>.cls-1{fill:#221f1f;stroke:#fff;stroke-miterlimit:10;}.cls-2{fill:#fff;}</style></defs><title>Ресурс 1</title><g id="Слой_2" data-name="Слой 2"><g id="Слой_1-2" data-name="Слой 1"><path class="cls-1" d="M107.06,9.67c2,.5,6,2.8,8.9,5,5.1,4.1,8.6,10.1,11.9,20.4,1.7,5.3,4.7,9.5,6.9,9.5,2,0,6.2-4.2,8.4-8.5,2.1-4.1,7.3-8.8,12.6-11.6,8.2-4.2,19.7-2.4,27.8,4.5,4.2,3.6,8.5,12.5,9.8,20.5.6,3.7,1.7,6.8,2.5,7.2a44.59,44.59,0,0,0,7.2,1.9c14.8,2.9,24.8,16.6,24.8,34,0,9.2-2.2,15.7-7.8,23.1-2.6,3.4-5.3,7-6.1,8.1-1.2,1.6-.9,2.3,3.3,6.8,9.7,10.4,12.5,23.4,7.7,36.1-4.6,12.2-19.3,22.2-29.8,20.3l-3.3-.6,3.4-6.2c3.5-6.2,6.1-13.3,3.4-9.1-4.5,6.9-21.5,22.1-31.9,28.4-4,2.5-2.2,2.7,4.7.6a54.39,54.39,0,0,1,5.6-1.5c1.9,0-3,9.8-7.4,14.5-7.1,7.8-15.5,11.7-25.1,11.6a38.6,38.6,0,0,1-25-8.9c-1.6-1.4-1.5-1.6,1.3-3.3,3.3-2.1,3.8-4,1.4-5.9-1.2-1.1-2.6-1-7.7.8a41.65,41.65,0,0,1-11.2,2.3c-4.8.1-4.9.1-2.2,1.3l2.8,1.2L99,215c-17.2,9.3-41.5,4.5-52.2-10.5l-2-2.8,3.5,1.4c6.9,2.9,19.4,1.2,25.3-3.3,2.2-1.6,2-1.7-7.5-1.7-8.8,0-10.3-.3-15.7-3a26.57,26.57,0,0,1-14-16.7c-2.2-7.4-1.9-19.2.6-27.3,1.1-3.7,1.8-6.9,1.6-7.1-.6-.6-6,6.3-7.9,10.1-3.6,6.9-4.5,18.8-2.2,27.2.4,1.5.2,2.3-.5,2.3-2.2,0-12.3-10.5-14.7-15.2-9.2-18.1-5.8-44.2,7.3-57.4,1.5-1.5,1.8-3.8,1.8-15.8,0-13.7.1-14.3,3.2-20.8,5-10.6,14.3-18.4,24.1-20.4l3.2-.6-1.4,3.8a68.85,68.85,0,0,0-2,8.4l-.7,4.5,2.6-5.1c5.2-10.5,15.7-19.6,25.6-22.3,4.6-1.3,15-1.1,19.9.3,2.4.7,2.4.7-.5-1.8-6.5-5.6-16.8-7-26.5-3.6-3,1-5.6,1.7-5.8,1.5s.4-3.1,1.2-6.5a33.58,33.58,0,0,1,13.3-18.9C87.16,8,96.06,6.67,107.06,9.67Z"/><path class="cls-2" d="M88,.87c-13,3-22.1,10.4-27.8,22.7a36,36,0,0,0-4,14.6l-.4,7.1-5.4.6c-7.6.8-15.4,4.7-22,10.9-10.1,9.5-14.8,22-14.9,39.3,0,10.8-.1,11.1-3.2,15.3C3.2,121.07,0,131.47,0,145.07c0,22.7,11.2,41.1,28.9,47.5,5.6,2.1,5.8,2.2,7.5,7.8,7.6,24.7,41,35.4,67,21.4l7.4-4,3.3,3.5c7.2,7.4,24,13.2,34.4,11.7,18.8-2.5,33.8-15.9,37.6-33.4l1.1-5h8.28c14.3,0,25.3-5.4,32.4-16.1,5.5-8.3,7.5-14.8,7.5-24.4s-2-15.6-7.4-23.6l-3.8-5.6,3.3-4.7c6.1-8.6,7.8-14,8.3-25.8.4-9,.1-11.6-1.8-17.2-4.1-12.6-14.1-22.4-26-25.7a25,25,0,0,1-5.3-1.9c-.4-.3-1.4-3.2-2.2-6.3-2.1-8.2-5.7-14.6-10.7-19.3-15.2-14.4-34-13.6-48.7,2.2l-5.8,6.2-1.7-5.2C127.6,8.67,106.8-3.43,88,.87Zm19.2,8.8c2,.5,6,2.8,8.9,5,5.1,4.1,8.6,10.1,11.9,20.4,1.7,5.3,4.7,9.5,6.9,9.5,2,0,6.2-4.2,8.4-8.5,2.1-4.1,7.3-8.8,12.6-11.6,8.2-4.2,19.7-2.4,27.8,4.5,4.2,3.6,8.5,12.5,9.8,20.5.6,3.7,1.7,6.8,2.5,7.2a44.59,44.59,0,0,0,7.2,1.9c14.8,2.9,24.8,16.6,24.8,34,0,9.2-2.2,15.7-7.8,23.1-2.6,3.4-5.3,7-6.1,8.1-1.2,1.6-.9,2.3,3.3,6.8,9.7,10.4,12.5,23.4,7.7,36.1-4.6,12.2-19.3,22.2-29.8,20.3l-3.3-.6,3.4-6.2c3.5-6.2,6.1-13.3,3.4-9.1-4.5,6.9-21.5,22.1-31.9,28.4-4,2.5-2.2,2.7,4.7.6a54.39,54.39,0,0,1,5.6-1.5c1.9,0-3,9.8-7.4,14.5-7.1,7.8-15.5,11.7-25.1,11.6a38.6,38.6,0,0,1-25-8.9c-1.6-1.4-1.5-1.6,1.3-3.3,3.3-2.1,3.8-4,1.4-5.9-1.2-1.1-2.6-1-7.7.8a41.65,41.65,0,0,1-11.2,2.3c-4.8.1-4.9.1-2.2,1.3l2.8,1.2-5,2.8c-17.2,9.3-41.5,4.5-52.2-10.5l-2-2.8,3.5,1.4c6.9,2.9,19.4,1.2,25.3-3.3,2.2-1.6,2-1.7-7.5-1.7-8.8,0-10.3-.3-15.7-3a26.57,26.57,0,0,1-14-16.7c-2.2-7.4-1.9-19.2.6-27.3,1.1-3.7,1.8-6.9,1.6-7.1-.6-.6-6,6.3-7.9,10.1-3.6,6.9-4.5,18.8-2.2,27.2.4,1.5.2,2.3-.5,2.3-2.2,0-12.3-10.5-14.7-15.2-9.2-18.1-5.8-44.2,7.3-57.4,1.5-1.5,1.8-3.8,1.8-15.8,0-13.7.1-14.3,3.2-20.8C30.7,63.77,40,56,49.8,54l3.2-.6-1.4,3.8a68.85,68.85,0,0,0-2,8.4l-.7,4.5L51.5,65c5.2-10.5,15.7-19.6,25.6-22.3,4.6-1.3,15-1.1,19.9.3,2.4.7,2.4.7-.5-1.8-6.5-5.6-16.8-7-26.5-3.6-3,1-5.6,1.7-5.8,1.5s.4-3.1,1.2-6.5a33.58,33.58,0,0,1,13.3-18.9C87.3,8,96.2,6.67,107.2,9.67Z"/><path class="cls-2" d="M156.08,49.57c-3.3,1.7-6.51,3.8-7.19,4.6-1.07,1.4-.78,1.5,2.62.7a84,84,0,0,1,12.06-.8c6.71,0,9.14.4,12.64,2.3,12.06,6.3,18.47,25.2,14.19,42.2-.77,3-1.26,5.7-1.07,5.9.78.7,6.13-9.1,7.3-13.4.77-2.7,1.07-7.7.77-12.7-.48-9.8-2.52-14.6-9.33-22.1C179,46.27,167.26,43.87,156.08,49.57Z"/><path class="cls-2" d="M154.1,138.77c-.5,1.3-1.4,3.7-2,5.3-3.1,8.2-18.5,18.6-30.1,20.3l-5.5.8,5,.7c6.1.9,15.4-.7,20.9-3.5,9.7-4.9,21.7-20.5,18.7-24.2C159.1,135.77,155.1,136.17,154.1,138.77Z"/></g></g></svg>