<svg xmlns="http://www.w3.org/2000/svg" viewBox="0 0 78 70.09"><title>Ресурс 1</title><g id="Слой_2" data-name="Слой 2"><g id="Слой_1-2" data-name="Слой 1"><path d="M36.1,1.59C33.5,3.89,0,62.49,0,65a4.9,4.9,0,0,0,2.2,3.3c3.4,2.4,70.2,2.4,73.6,0a4.94,4.94,0,0,0,2.2-3.2C78,63,45.2,5,42.3,2.09,39.6-.61,38.8-.61,36.1,1.59Zm6.5,15.7c1.6,1.2,2,2.9,2.2,11,.5,11.3-.9,14.6-5.8,14.6s-6.3-3.3-5.8-14.6c.2-8.1.6-9.8,2.2-11a7.45,7.45,0,0,1,3.6-1.4A7.45,7.45,0,0,1,42.6,17.29Zm-.1,33.1c4.7,4.7,2.3,14.5-3.5,14.5-5.6,0-8.1-9.1-3.9-14.4C37.7,47.29,39.4,47.19,42.5,50.39Z"/></g></g></svg>