<svg xmlns="http://www.w3.org/2000/svg" viewBox="0 0 237.49 212.9"><title>Ресурс 1</title><g id="Слой_2" data-name="Слой 2"><g id="Слой_1-2" data-name="Слой 1"><path d="M4.29,1.53c-5.2,2.8-5.8,10.9-1.1,14.5,2.1,1.7,4,2,14.1,2,13.3,0,18.5,1.1,20.6,4.4.9,1.3,11.6,28.9,23.9,61.4,16.3,43.3,23.2,60.1,25.5,63.1,4.2,5.2,13.8,10.1,20,10.1,2.5,0,23.5-3.4,46.6-7.6,46.3-8.4,50.7-9.6,54.9-16.1,1.3-2.1,8.4-18.1,15.6-35.6,12.1-29.4,13.1-32.4,13.1-38.2,0-8.3-2.9-15.2-8.8-20.6-8.6-7.9-2.5-7.4-89.5-7.7l-77.7-.3-3.2-8.7c-4.2-11.1-10.7-18.2-18.9-20.6C32.19-.47,8.09-.57,4.29,1.53Zm212.2,51.4a9,9,0,0,1,2.9,5.7c0,3.2-23.6,61.2-25.9,63.6-1.2,1.2-13,3.7-43.4,9.2-40,7.3-42,7.6-45.1,6.1a11.3,11.3,0,0,1-4.4-3.8c-1.6-3-31.2-81.7-31.2-82.8,0-.5,30.3-.9,72.1-.9h72.1Z"/><path d="M72.09,178c-11.1,6.1-12.7,21.1-3.2,29.9,11.9,11,30.5,2.7,30.5-13.6,0-6-2.4-10.8-7.3-14.7S77.89,174.93,72.09,178Z"/><path d="M185.09,178.13a23,23,0,0,0-6.5,6.1c-3.7,5.7-3.8,14.8-.3,20,4.1,5.9,8.5,8.3,15.6,8.3,5,0,6.9-.5,10.3-2.8,11.7-7.7,10.7-25.1-1.8-31.8C197.79,175.43,190,175.53,185.09,178.13Z"/></g></g></svg>