<svg xmlns="http://www.w3.org/2000/svg" viewBox="0 0 163.95 163.5"><title>Ресурс 1</title><g id="Слой_2" data-name="Слой 2"><g id="Слой_1-2" data-name="Слой 1"><path d="M117.4.5c-4.7,1.1-7.5,3.4-24,20.2-23,23.4-23.1,22.7,1.8,47.4,9.5,9.5,18.3,17.7,19.5,18.3,3,1.5,7.9,1.4,11.7-.4,4.2-2,35.1-33.2,36.5-36.8a14.29,14.29,0,0,0-.3-11.5c-2-3.8-36-37.2-37.9-37.2a14.46,14.46,0,0,1-2.9-.4A10.5,10.5,0,0,0,117.4.5Zm17.8,27.7C143.4,36.3,150,43.4,150,44c0,1.3-28.2,29.5-29.5,29.5-.6,0-7.7-6.7-16-15L89.6,43.6l14.9-15.1c8.2-8.2,15.2-15,15.4-15S127.1,20.1,135.2,28.2Z"/><path d="M16.5,9.4C9.2,11.2,5.3,14.5,2.1,21.5.3,25.5,0,28.1,0,43c0,9.3.5,18.7,1.1,20.9,1.4,5,8.2,12.3,12.8,13.7,2.2.6,11.2.9,23.3.7L56.8,78l4.3-3a27.26,27.26,0,0,0,6.6-7.4c2.2-4.2,2.3-5.4,2.3-23.9,0-21.8-.4-23.6-7-29.6a23.76,23.76,0,0,0-7.7-4.5C51.1,8.4,21.2,8.3,16.5,9.4Zm37.6,15c2.3,1.8,2.4,2.5,2.7,17.6.4,17.1-.3,20.5-4.4,22.4-1.5.7-8.6,1.1-17.8,1.1-14,0-15.6-.2-18-2.1l-2.6-2V43.9C14,21,12.5,22.5,34.9,22.5,50,22.5,52,22.7,54.1,24.4Z"/><path d="M14.6,94.9c-6.1,2.3-8.9,4.7-11.8,10.6C.1,110.7,0,111.3,0,127.9c0,9.4.5,18.8,1.1,20.9,1.3,4.7,7.2,11.5,11.6,13.4,2.3.9,8.6,1.3,22.6,1.3,18.4,0,19.6-.1,23.8-2.3a25.87,25.87,0,0,0,7.4-6.6l3-4.3V106.8l-2.8-3.7a35.79,35.79,0,0,0-7-6.4c-4-2.7-4.3-2.7-22.6-3C22.8,93.6,17.6,93.8,14.6,94.9Zm39.5,14.5c2.3,1.8,2.4,2.5,2.7,17.6.4,17.1-.3,20.5-4.4,22.4-1.5.7-8.6,1.1-17.8,1.1-14,0-15.6-.2-18-2.1l-2.6-2V128.9c0-22.9-1.5-21.4,20.9-21.4C50,107.5,52,107.7,54.1,109.4Z"/><path d="M101.5,94.4c-7.5,1.9-11.2,5.1-14.4,12.1-1.8,4-2.1,6.6-2.1,21.5,0,9.3.5,18.7,1.1,20.8,1.3,4.7,7.2,11.5,11.6,13.4,2.3.9,8.6,1.3,22.6,1.3,18,0,19.6-.1,23.7-2.3a23.21,23.21,0,0,0,7.5-6.5l3-4.4.3-19.1c.2-10.6.1-20.6-.3-22.3-.7-3.7-6.5-10.8-10.9-13.2-2.5-1.4-6.3-1.7-21.1-1.9C112.6,93.7,103.2,94,101.5,94.4Zm37.6,15c2.3,1.8,2.4,2.5,2.7,17.6.4,17.1-.3,20.5-4.4,22.4-1.5.7-8.6,1.1-17.8,1.1-14,0-15.6-.2-18-2.1l-2.6-2V128.9c0-22.9-1.5-21.4,20.9-21.4C135,107.5,137,107.7,139.1,109.4Z"/></g></g></svg>