<svg xmlns="http://www.w3.org/2000/svg" viewBox="0 0 359.27 359.77"><title>Ресурс 1</title><g id="Слой_2" data-name="Слой 2"><g id="Слой_1-2" data-name="Слой 1"><path d="M153.79,1.35c-39,6.2-73.4,23.5-100.6,50.5a180.86,180.86,0,0,0-14.1,240.4,183.44,183.44,0,0,0,82.2,58.1c18.2,6.3,31.5,8.7,51.6,9.3,20.3.5,33-.6,48.6-4.4a180.92,180.92,0,0,0,136.7-151.7c1.6-11.6,1.4-28.2-.4-31.6-3.3-6.5-12.1-11-18.8-9.7-5.5,1-11.2,5.8-13,10.8-.9,2.4-1.8,8.8-2.2,14.3-.8,13.8-2.2,22.3-5.7,33.9-13.6,46-50.6,83.2-96.2,97.1-83.9,25.5-171.6-29-185.8-115.5-1.6-9.8-1.6-36.4.1-46.5,8.1-49.5,43.4-93.2,90-111.5,25.9-10.1,58.7-12.6,86-6.4,8,1.8,13.2.9,18.1-3.2,4.3-3.7,6-7.5,6-13.7s-2.5-10.8-7.7-14.3c-3.3-2.2-14-4.8-26.3-6.4C191.79-.45,163.39-.25,153.79,1.35Z"/><path d="M294.89,75.55c-2,1.6-9.8,10-17.3,18.8s-25,29.1-38.8,45-32.6,37.7-41.8,48.4-17.2,19.6-17.7,19.6-10.7-9.8-22.8-21.7c-23.5-23.2-25.8-24.8-34.1-23.4-8.1,1.3-15.1,9.4-15.1,17.6,0,7,3.1,10.8,32.6,40.2,33.7,33.5,35.5,34.7,46,29.9,4-1.8,12.6-11.2,63.4-69.5,5.8-6.7,23.9-27.4,40.4-46.1s30.4-35.4,31.2-37.2a18.3,18.3,0,0,0-6.3-21.8C309.09,71.65,300,71.75,294.89,75.55Z"/></g></g></svg>