<svg xmlns="http://www.w3.org/2000/svg" viewBox="0 0 218.38 187.28"><title>Ресурс 1</title><g id="Слой_2" data-name="Слой 2"><g id="Слой_1-2" data-name="Слой 1"><path d="M86,1.35c-27.9,4.9-47.9,14-64.2,29.3a70.41,70.41,0,0,0-19.3,29.5c-2.5,7.9-2.7,9.5-2.3,19.9.4,9,1,12.7,3.2,18.2,5.2,13.7,16.5,27.2,30.6,36.6,3.6,2.4,6.6,4.4,6.8,4.5.6.5-4.8,13.6-7.3,18a119.92,119.92,0,0,1-9.5,12.3c-7.9,9.2-9.3,11.6-8.5,14.2,1.6,4.9,8.4,4.6,26.4-1.2,16.7-5.3,30.7-12.5,42.6-21.9l6-4.7,19.5-.4c21.4-.5,33.6-2.5,48.1-7.8,31.2-11.5,50.8-29.8,58.7-54.5,2-6.4,2.2-23.2.3-30-3.4-12.2-13.4-27-24.5-36.3-14.8-12.5-37-22-60.1-25.7C121.46-.45,96.36-.45,86,1.35Zm45.2,15.5c22.1,3.8,38.9,11.3,53.1,23.7,18.7,16.4,23.9,36.3,14.6,56.3-4.1,8.7-18.2,22.7-29.3,28.9-21,11.9-48.3,17-75.6,14.2l-7.5-.8-7,5.8c-11.1,9-29.6,20.1-31.1,18.6-.3-.3.3-2.2,1.4-4.4,1.9-3.7,4.6-11.6,7.6-22l1.5-5.2-8.7-5.2c-10.3-6.2-12-7.5-19.1-14.2-25.4-24.3-20.3-57.6,12.3-79.1C67.46,17.55,99.76,11.35,131.16,16.85Z"/></g></g></svg>