<svg xmlns="http://www.w3.org/2000/svg" viewBox="0 0 425.85 426.31"><title>Ресурс 1</title><g id="Слой_2" data-name="Слой 2"><g id="Слой_1-2" data-name="Слой 1"><g id="Слой_1-2-2" data-name="Слой 1-2"><path d="M194.5.91c-54.8,3.9-109.1,31.9-145.2,74.8-22.8,27.1-38.4,59.5-46.1,95.6C.1,186,0,186.91,0,212.81c0,25,.2,27.3,2.8,40.2,5.9,29.5,15.8,54,31,77.1,32.1,49,80.8,81.6,139.3,93.4,13.2,2.7,15.3,2.8,40.4,2.8,25.9,0,26.8-.1,41.5-3.2,64.7-13.7,116.4-52.5,146.8-110.3,37.2-70.6,30.8-159.9-16.1-224a219.48,219.48,0,0,0-82.3-68.5c-21.7-10.2-50.6-17.7-75.8-19.5C212.6-.29,211.1-.29,194.5.91Zm55.9,24.3c44.9,9.2,83.3,32.4,111.3,67.1,23.6,29.1,36.6,59.8,41.8,99.2,2,14.4.8,43.8-2.4,58.8-4.3,20.9-9.9,36.8-18.8,53.5-9.6,18.1-18.3,29.8-34.1,45.8q-40.05,40.8-98.8,52.8c-15.2,3.1-43.3,4.3-57.4,2.5-24.1-3.2-43.1-8.8-63-18.5-56-27.4-93.2-76-105.7-137.9-2-9.8-2.3-14.2-2.3-35.2,0-22.5.2-24.8,2.8-37.2,12-56.8,45.5-102.3,95.8-130.5,20.6-11.5,43.8-19,72.4-23.2,1.7-.2,12.7-.3,24.5-.1C234.9,22.61,239.8,23,250.4,25.21Z"/><path d="M103,103.11c-2.8,2.8-3.5,4.3-3.5,7.3,0,3.7,1.4,5.3,49,52.9,27,27,49,49.5,49,50s-22,23-49,50c-48.4,48.4-49,49.1-49,53,.1,6.1,4.7,10.5,10.9,10.5,3.3,0,6.5-3,52.6-49,27-27,49.5-49,50-49s23,22,50,49c47.1,47.1,49.2,49,52.8,49a9.41,9.41,0,0,0,6.9-2.9c2.8-2.5,3.3-3.6,3.3-7.5v-4.6l-48.7-48.7c-26.9-26.9-48.8-49.3-48.8-49.8s21.9-22.9,48.8-49.8l48.7-48.7-.1-4.6c-.1-5.9-3.3-9.3-9.3-10.1l-4.3-.6-49.1,49.2c-27.1,27-49.7,49.1-50.2,49.1s-22.9-21.9-49.6-48.6c-45.8-45.8-48.8-48.6-52.7-49.1S106.2,99.91,103,103.11Z"/></g></g></g></svg>