<svg xmlns="http://www.w3.org/2000/svg" viewBox="0 0 95 95.11"><title>Ресурс 1</title><g id="Слой_2" data-name="Слой 2"><g id="Слой_1-2" data-name="Слой 1"><path d="M1.2,1.18C.3,2.08,0,8.78,0,25c0,22.3,0,22.7,2.6,27.8,2.8,5.6,7.2,10,13.7,13.4,4,2.2,5.5,2.3,30,2.6,14.1.2,25.7.6,25.7,1s-3.8,4.5-8.5,9.2c-8.8,8.7-10,11.3-6.9,14.4,3.8,3.8,6.2,2.3,22.7-14.2L95,63.38,79.2,47.68c-16.5-16.4-18.9-17.9-22.6-14.1-3.1,3.1-1.9,5.7,6.9,14.4,4.7,4.7,8.5,8.8,8.5,9.2s-10.5.8-23.2.8c-26.4,0-29.1-.6-34.4-7.6l-2.9-3.7-.3-21.6C10.9,7,10.6,3.18,9.3,1.78,7.5-.32,3-.62,1.2,1.18Z"/></g></g></svg>