<svg xmlns="http://www.w3.org/2000/svg" viewBox="0 0 29.27 119.57"><title>Ресурс 1</title><g id="Слой_2" data-name="Слой 2"><g id="Слой_1-2" data-name="Слой 1"><path d="M9.08,1.23a14.52,14.52,0,0,0-4,24.5c6.4,5.6,14.7,5,20.4-1.4,5.3-6.1,5-14.3-.7-19.8C20-.07,14.58-1.17,9.08,1.23Z"/><path d="M9.08,46.23a14.52,14.52,0,0,0-4,24.5c6.4,5.6,14.7,5,20.4-1.4,5.3-6.1,5-14.3-.7-19.8C20,44.93,14.58,43.83,9.08,46.23Z"/><path d="M9.08,91.23a14.52,14.52,0,0,0-4,24.5c6.4,5.6,14.7,5,20.4-1.4,5.3-6.1,5-14.3-.7-19.8C20,89.93,14.58,88.83,9.08,91.23Z"/></g></g></svg>