<svg xmlns="http://www.w3.org/2000/svg" viewBox="0 0 149.88 149.77"><title>Ресурс 1</title><g id="Слой_2" data-name="Слой 2"><g id="Слой_1-2" data-name="Слой 1"><path d="M8.18,2a12.87,12.87,0,0,0-6.3,6.3c-2,4.3-2,5.3-1.8,67.9.3,62.4.3,63.6,2.4,66.3a27.26,27.26,0,0,0,4.8,4.8c2.7,2.1,3.9,2.1,66.3,2.4,62.7.2,63.6.2,67.9-1.8a12.67,12.67,0,0,0,6.3-6.4c2-4,2.1-5.9,2.1-38.5V68.78l-2.5-2.4c-2.9-3-6.4-3.2-9.6-.6l-2.4,1.9-.3,33.6-.3,33.6H14.88V15l33.5-.3c36.6-.3,35.8-.2,37.1-6.4a6,6,0,0,0-1.4-5.4l-2-2.5L47.18.08C13.58-.12,12.28-.12,8.18,2Z"/><path d="M139.38.88c-1.1.4-4.6,3.5-7.8,6.7l-5.7,5.9,5.3,5.2,5.3,5.2,6.2-6.3c8.3-8.4,9-13.1,2.5-16.5C142.68-.32,142.08-.32,139.38.88Z"/><path d="M82.18,57.18c-19.8,19.9-36.4,37.2-36.7,38.3-1.5,5.2,4.4,10.5,9.5,8.5,1.3-.5,18.5-17.1,38.2-36.8l35.7-35.8-5.3-5.3-5.2-5.2Z"/></g></g></svg>