<svg xmlns="http://www.w3.org/2000/svg" viewBox="0 0 346.46 288.3"><defs><style>.cls-1{fill:#010101;}.cls-2{fill:none;}</style></defs><title>Ресурс 3</title><g id="Слой_2" data-name="Слой 2"><g id="Слой_1-2" data-name="Слой 1"><path class="cls-1" d="M153.43,29.56c-23.9,4.5-48.6,15.3-74.1,32.2C50,81.26,7.73,120.16,2,132.86c-2.71,5.9-2.71,16.5,0,22.4,4,8.9,29.6,34.4,55.2,54.9,30.1,24.1,63.6,41.4,92.2,47.6,11.5,2.5,36.1,2.5,47.6,0,28.6-6.2,62.1-23.5,92.21-47.6,25.4-20.3,51.3-46.1,55.2-54.9,2.7-5.9,2.7-16.5,0-22.4-3.9-8.8-29.8-34.6-55.2-54.9-29.61-23.7-62.91-41.1-91.11-47.4C188,28.26,163,27.76,153.43,29.56Zm35.8,32.6c18.7,2.9,47.5,16.9,70.5,34.2a493.13,493.13,0,0,1,43,37.6l10,10.1-10,10.1c-17.8,18-42.51,38.3-59.51,48.9-12.2,7.7-33.1,17.5-43.3,20.4a95.1,95.1,0,0,1-53.4,0c-10.2-2.9-31.1-12.7-43.3-20.4-17.7-11.1-41.9-31-60.5-49.9l-9-9.1,9-9.1c18.6-18.9,42.8-38.8,60.5-49.9,12.4-7.8,33.1-17.5,43.5-20.5C161.53,60.36,173.23,59.66,189.23,62.16Z"/><path class="cls-1" d="M164.43,112.56a32.59,32.59,0,0,0-22.8,39.5,32.16,32.16,0,0,0,24.1,23.7c11.3,2.8,22.1-.3,30.5-8.7s11.5-19.2,8.7-30.4C200.43,118.36,182.23,107.56,164.43,112.56Z"/><rect class="cls-2" x="157.17" y="-43.55" width="32.31" height="375.4" transform="translate(152.69 -80.34) rotate(45)"/></g></g></svg>