<svg xmlns="http://www.w3.org/2000/svg" viewBox="0 0 237.49 212.9"><title>Ресурс 1</title><g id="Слой_2" data-name="Слой 2"><g id="Слой_1-2" data-name="Слой 1"><path d="M72.09,178c-11.1,6.1-12.7,21.1-3.2,29.9,11.9,11,30.5,2.7,30.5-13.6,0-6-2.4-10.8-7.3-14.7S77.89,174.93,72.09,178Z"/><path d="M185.09,178.13a23,23,0,0,0-6.5,6.1c-3.7,5.7-3.8,14.8-.3,20,4.1,5.9,8.5,8.3,15.6,8.3,5,0,6.9-.5,10.3-2.8,11.7-7.7,10.7-25.1-1.8-31.8C197.79,175.43,190,175.53,185.09,178.13Z"/><path d="M203.13,100.85c-4.67,11.19-8.75,20.45-9.64,21.38-1.2,1.2-13,3.7-43.4,9.2-40,7.3-42,7.6-45.1,6.1a11.47,11.47,0,0,1-4.4-3.8c-1.6-3-31.2-81.7-31.2-82.8,0-.48,26.88-.86,64.93-.9h0a53.08,53.08,0,0,1,3.43-18.81l-76.26-.29-3.2-8.7c-4.2-11.1-10.7-18.2-18.9-20.6-7.2-2.1-31.3-2.2-35.1-.1-5.2,2.8-5.8,10.9-1.1,14.5,2.1,1.7,4,2,14.1,2,13.3,0,18.5,1.1,20.6,4.4.9,1.3,11.6,28.9,23.9,61.4,16.3,43.3,23.2,60.1,25.5,63.1,4.2,5.2,13.8,10.1,20,10.1,2.5,0,23.5-3.4,46.6-7.6,46.3-8.4,50.7-9.6,54.9-16.1,1.3-2.1,8.4-18.1,15.6-35.6,3.24-7.88,5.68-13.85,7.52-18.5A53.19,53.19,0,0,1,203.13,100.85Z"/><path d="M187.49,0a50,50,0,1,0,50,50A50,50,0,0,0,187.49,0ZM218.2,30.27c-.21.47-3.84,4.84-8.15,9.72s-9,10.29-10.55,12C186.24,67.25,184,69.71,183,70.18c-2.74,1.25-3.21.94-12-7.81-7.71-7.68-8.52-8.67-8.52-10.5a4.93,4.93,0,0,1,4-4.6c2.16-.36,2.76.06,8.9,6.11,3.16,3.11,5.82,5.67,6,5.67s2.21-2.32,4.62-5.12,7.31-8.48,10.91-12.64,8.18-9.45,10.13-11.75a64.59,64.59,0,0,1,4.52-4.91,4.9,4.9,0,0,1,5.15-.05A4.77,4.77,0,0,1,218.2,30.27Z"/></g></g></svg>