<svg xmlns="http://www.w3.org/2000/svg" viewBox="0 0 87.64 87.69"><title>Ресурс 1</title><g id="Слой_2" data-name="Слой 2"><g id="Слой_1-2" data-name="Слой 1"><path d="M33.3,1.28C11.3,6.78-3.2,28.78.6,50.88c4.1,24,26.6,40.2,50.2,36.2A43.74,43.74,0,0,0,87,50.88C92.3,20.28,63.6-6.22,33.3,1.28Zm26.9,6.4c9.1,4.2,14.9,10,19.4,19,3.5,7.2,3.7,8.1,3.7,17.2s-.2,10-3.7,17.2c-4.5,9.1-10.3,14.7-19.6,19.1-6.1,2.9-7.6,3.2-16.2,3.2s-10.1-.3-16.2-3.2c-9.3-4.4-15.1-10-19.6-19.1C4.5,53.88,4.3,53,4.3,44c0-8.7.3-10.2,3.2-16.3,4-8.5,9.7-14.7,17.2-18.6,7.8-4.2,12.2-5.2,21.3-4.8A32.67,32.67,0,0,1,60.2,7.68Z"/><path d="M28.8,23.68c-5.6,2.8-7,6.8-7,20.2,0,19.2,2.8,22,22,22s22-2.8,22-22-2.8-22-22-22C34.9,21.88,31.5,22.28,28.8,23.68Zm30.1,5.1c2.9,2.9,2.9,3,2.9,15.1s0,12.2-2.9,15.1-3,2.9-15.1,2.9-12.2,0-15.1-2.9-2.9-3-2.9-15.1,0-12.2,2.9-15.1,3-2.9,15.1-2.9S56,25.88,58.9,28.78Z"/><path d="M53.1,31.48c-.6,1.7,1.4,3.6,3.2,3.1.6-.2,1.1-1.3,1.3-2.5.3-1.7-.2-2.2-1.8-2.2A3.11,3.11,0,0,0,53.1,31.48Z"/><path d="M36.2,36.28c-2.8,2.8-3.4,4.2-3.4,7.6s.6,4.8,3.4,7.6,4.2,3.4,7.6,3.4,4.8-.6,7.6-3.4,3.4-4.2,3.4-7.6-.6-4.8-3.4-7.6-4.2-3.4-7.6-3.4S39,33.48,36.2,36.28Zm12.6,2.6c4.3,4.3,1.1,12-5,12a7,7,0,0,1,0-14A8,8,0,0,1,48.8,38.88Z"/></g></g></svg>