<svg xmlns="http://www.w3.org/2000/svg" viewBox="0 0 207.87 207.92"><defs><style>.cls-1{fill:#fff;}</style></defs><title>Ресурс 2</title><g id="Слой_2" data-name="Слой 2"><g id="Слой_1-2" data-name="Слой 1"><path class="cls-1" d="M28.87,1.82a42.22,42.22,0,0,0-27.5,28.5C.07,34.92-.13,44.82.07,106l.3,70.4,3.6,7.5a41.44,41.44,0,0,0,16.9,18.6c9.4,5.4,9.9,5.4,83.5,5.4,73.9,0,73.5,0,83-5.6,4.9-2.8,12.4-10.6,15.3-15.6,5.2-9.2,5.2-9,5.2-82.8,0-74.4.1-73.2-5.5-83.3a43.37,43.37,0,0,0-15-15.1c-9.4-5.6-10-5.6-84.5-5.5C40.17,0,33.87.22,28.87,1.82ZM178,24.42a25.87,25.87,0,0,1,6.6,7.4l2.3,4.4v135.4l-2.3,4.4a27.26,27.26,0,0,1-6.6,7.4l-4.3,3H34.37l-4-2.7a28.63,28.63,0,0,1-6.5-6.5l-2.5-3.7-.3-68.4c-.2-68-.2-68.5,1.9-72.9,2.3-4.7,7-8.9,11.6-10.3,1.5-.5,33.5-.8,71-.7l68.1.2Z"/><path class="cls-1" d="M44.57,44.72a10.14,10.14,0,0,0,7.3,17.2c3.3,0,4.8-.6,7.1-2.9,6.5-6.6,2-17.1-7.3-17.1C48.17,41.92,46.67,42.52,44.57,44.72Z"/><path class="cls-1" d="M87.57,43c-5.2,3-5.8,11.6-1,16.3l2.6,2.6h70.9L163,59a10.05,10.05,0,0,0,.1-14.4l-2.8-2.7h-35.5C102.57,41.92,88.67,42.32,87.57,43Z"/><path class="cls-1" d="M46.67,84.52c-3.5,1.9-4.8,4.3-4.8,9.2,0,7.5,7,12.1,14.1,9.2,4.1-1.7,5.9-4.7,5.9-9.5C61.77,85.22,53.87,80.62,46.67,84.52Z"/><path class="cls-1" d="M89.37,83.82c-3.9,1.6-6,5.1-6,9.8,0,3.8.5,4.9,3.3,7.4l3.2,2.9H124c28.4,0,34.5-.3,36.9-1.5,3.7-1.9,5-4.3,5-9s-1.3-7.1-5-9c-2.4-1.3-8.4-1.5-36.2-1.4C106.37,83,90.47,83.42,89.37,83.82Z"/><path class="cls-1" d="M44.77,127.82a10.42,10.42,0,0,0,3.9,17.2c6.3,2.4,13.2-3,13.2-10.3A9.94,9.94,0,0,0,44.77,127.82Z"/><path class="cls-1" d="M87,127.52a9.66,9.66,0,0,0-2.6,12.4c2.9,5.7,4.9,6,40.4,6,17.6,0,33.1-.4,34.4-.9a10.45,10.45,0,0,0,3.8-17.2l-2.9-2.9h-70Z"/></g></g></svg>