<svg xmlns="http://www.w3.org/2000/svg" viewBox="0 0 163.8 255.86"><defs><style>.cls-1{fill:#fff;}</style></defs><title>Ресурс 1</title><g id="Слой_2" data-name="Слой 2"><g id="Слой_1-2" data-name="Слой 1"><path class="cls-1" d="M92.3,1.76c-4.2,2.6-5.4,6.6-5.4,18.2,0,9-.2,9.9-1.9,9.9-3.3,0-4.2,2.4-3.9,10.7.3,7.4.4,7.8,2.7,8.1,3.1.5,4.1-1.2,4.1-7.1v-4.7h37v32h-37V64c0-9.5-6.2-9.7-6.8-.2l-.3,5.1H51.1c-28,0-29.9.1-33,2-4,2.4-6.2,7.3-6.2,13.5,0,4.5,0,4.5-3.4,4.5a10.77,10.77,0,0,0-5.7,1.9C.5,92.56.4,93.36.1,107.16c-.4,15.3.3,18.7,3.8,18.7,3.2,0,4-3.3,4-16.9,0-12.4.1-13.1,2-13.1s2,.7,2,27,0,27-2,27c-1.8,0-2-.7-2-6.4,0-6-1.4-9.6-3.8-9.6-2.9.1-3.7,2.3-3.7,10.6,0,7.8.2,8.7,2.4,10.5a10.77,10.77,0,0,0,5.7,1.9h3.4v44.3c0,49.4-.1,49.1,7.1,52.9,3.1,1.7,7.1,1.8,61.7,1.8,63.3,0,62.7.1,67.1-5.6,2-2.5,2.1-3.7,1.9-14.3-.3-11.4-.3-11.6-2.7-11.9-1.3-.2-2.8.2-3.2,1s-.9,5.7-.9,11c0,8.9-.2,9.8-2.2,11.2s-9.3,1.6-59.3,1.6-57.3-.2-59.3-1.6c-1.2-.8-2.2-2-2.2-2.6s3.6-5,8-9.8l8-8.8v-90.5l5.5-5.8,5.5-5.8V89.66l-6.7-6.9-6.6-6.9h53c50.1,0,53.1.1,54.6,1.8s1.7,7.9,1.7,68.5c0,59.1.2,66.7,1.6,68.1a2.55,2.55,0,0,0,3.5.6c1.8-1,1.9-2.6,1.9-44v-43h3.5c8.9,0,10.9-3.9,10.3-20.2-.4-12.7-1.4-14.5-8.7-15l-4.6-.3-.5-8.2c-.5-7.6-.7-8.5-3.7-11.4-2.6-2.7-4.1-3.3-8.7-3.7l-5.6-.4V51c0-18.6-.4-20.6-4.5-21.3-1.8-.3-2-1.3-2.5-12-.5-11.2-.6-11.9-3.3-14.5S118.4.36,107.1.06C96.9-.14,95,.06,92.3,1.76Zm24.4,6.3c.7.7,1.2,2.9,1.2,5V17l-11.7-.3-11.8-.3-.3-3.1c-.5-5.3,1.6-6.4,12.2-6.4C112.1,6.86,115.9,7.26,116.7,8.06Zm1.2,18.8V30l-11.7-.3-11.8-.3-.3-2.8-.3-2.7h24.1Zm-78,79.9v14.4L34.4,127l-5.5,5.8v90.6l-4.6,4.8c-2.5,2.6-4.7,4.7-5,4.7s-.4-34.4-.4-76.5V79.86l2.1-2.1,2.1-2.1L31.5,84l8.4,8.4Zm116,3.7V121l-2.7-.3-2.8-.3-.3-10.3-.3-10.2h6.1Z"/><path class="cls-1" d="M24.5,88.46c-2.1,2-2,2.6.5,5.8s5.3,4.8,7.3,4c2.8-1.1,2.7-3.6-.1-6.6C28.1,87.26,26.3,86.56,24.5,88.46Z"/><path class="cls-1" d="M23.5,101.46c-1.3,3.3,5.4,10.1,8.7,8.8,3-1.1,2.9-3.6-.5-7.1S24.5,98.86,23.5,101.46Z"/><path class="cls-1" d="M23.5,113.46c-1.3,3.3,5.4,10.1,8.7,8.8,3-1.1,2.9-3.6-.5-7.1S24.5,110.86,23.5,113.46Z"/><path class="cls-1" d="M100.2,55.56c-.7.2-1.3,1.7-1.3,3.3,0,3,1.8,4,7.8,4,4.3,0,7.2-1.6,7.2-4a4,4,0,0,0-1.9-3C110,54.86,102.4,54.56,100.2,55.56Z"/><path class="cls-1" d="M110.5,189.46c-1.4,1.3-1.6,4.9-1.6,24.3,0,17.7.3,23.1,1.4,24.6s3,2,7.9,2.3c6,.4,6.8.2,9.1-2.1l2.6-2.6v-21.8c0-26.9.2-26.3-10.5-26.3C114,187.86,111.6,188.26,110.5,189.46Zm12.2,9.1c-.3,3.5-.6,3.8-3.5,4.1-3.2.3-3.3.2-3.3-3.7s.1-4.1,3.6-4.1S123,195,122.7,198.56Zm.2,15.3c0,3.9-.1,4-3.5,4s-3.5-.1-3.5-4,.1-4,3.5-4S122.9,210,122.9,213.86Zm-.5,15.5c0,3.8-.2,4-3.2,4.3-3.2.3-3.3.2-3.3-3.6,0-4.6.6-5.4,4-5C122.1,225.36,122.4,225.86,122.4,229.36Z"/></g></g></svg>