<svg xmlns="http://www.w3.org/2000/svg" viewBox="0 0 215.07 215.36"><defs><style>.cls-1{fill:#221f1f;}</style></defs><title>Ресурс 2</title><g id="Слой_2" data-name="Слой 2"><g id="Слой_1-2" data-name="Слой 1"><path class="cls-1" d="M74.8.6a88.7,88.7,0,0,0-66,48.3C2,62.8,0,71.4,0,87.6s2,24.8,8.8,38.7a88.86,88.86,0,0,0,57,46.4c11.4,3.1,31.7,3.1,43,0a101.28,101.28,0,0,0,28.6-13.1l6.1-4.2,29.7,29.5c16.3,16.2,30.6,29.8,31.9,30.2,5.4,1.6,11.3-4.3,9.7-9.7-.4-1.3-14-15.6-30.2-31.9l-29.5-29.7,4.2-6.1a101.28,101.28,0,0,0,13.1-28.6c3.1-11.3,3.1-31.6,0-43-4.7-17.8-16.3-35.8-30.1-46.8-8.8-7-22.9-14.1-33.5-16.7C99.5.2,83.4-.7,74.8.6Zm28,16.5c3.9.8,11.3,3.6,16.5,6.1,8,4,10.9,6.1,18.6,13.8C152.1,51.3,158,64.5,159,84.1c1.1,21.6-5.5,38.4-21.1,54.1-7.7,7.7-10.6,9.8-18.6,13.8q-23.7,11.55-48.9,5.6c-13.3-3.2-23-8.8-33.7-19.4-7.7-7.7-9.8-10.6-13.8-18.6-5.4-11.1-7.6-20.1-7.6-32s2.2-20.9,7.6-32c4-8,6.1-10.9,13.8-18.6C48.5,25.3,58.9,19.8,75.8,16.2,80.6,15.3,96.4,15.8,102.8,17.1Z"/></g></g></svg>