<svg xmlns="http://www.w3.org/2000/svg" viewBox="0 0 334.22 324.69"><title>Ресурс 1</title><g id="Слой_2" data-name="Слой 2"><g id="Слой_1-2" data-name="Слой 1"><path d="M140.72,1.09c-71.5,10-128,65.3-139.1,136-1.9,12.3-2.2,35.9-.5,48,6.7,47.1,34.8,90,75.9,115.5,26.5,16.4,53.7,24,85.4,24.1,39.2,0,72.8-11.8,103.3-36.4,21.2-17.1,39.6-42.3,49-67.4,9.2-24.3,13.7-57.4,9.1-66.6s-16.8-12.1-25.5-6.4c-5.6,3.7-8,9.1-8.1,17.7,0,16.2-5.4,37.4-13.6,53.6a125.61,125.61,0,0,1-74.2,64c-46.5,15.3-98.2,2.4-131.7-32.8-22.2-23.3-33.9-50.8-35.2-82.8-1.5-35.9,11.2-69,36.4-94.6,32.5-33,79.7-45.5,125.2-33.2a147.67,147.67,0,0,1,59.6,32.5c3.1,2.9,5.4,5.3,5,5.3s-5.2-1.2-10.8-2.6c-13.2-3.4-18.3-3.4-24.1,0-7.8,4.6-10.5,13.7-6.7,22.3,3.5,7.6,5.1,8.2,52.5,18.2,23.6,5,43,9,43.1,8.9.9-1.1,18.5-80.1,18.5-82.9,0-13.2-15.6-21.3-27.1-14-5.7,3.5-7,6.4-10.5,22.1-1.5,6.9-3,12.8-3.4,13.3s-3.8-3.1-7.8-7.7c-22-26.1-58.8-47-93.2-53.1C179.22-.21,153.42-.71,140.72,1.09Z"/></g></g></svg>