<svg xmlns="http://www.w3.org/2000/svg" viewBox="0 0 264.11 244.92"><title>Ресурс 1</title><g id="Слой_2" data-name="Слой 2"><g id="Слой_1-2" data-name="Слой 1"><path d="M128.13,1.62c-1.1,1-9.9,17.5-19.7,36.8s-18.5,35.8-19.5,36.9c-1.9,1.9-3.4,2.2-60.5,10.1C3.73,88.82,4,88.82,1.83,91c-4.2,4.2-3.5,5.1,27.9,34.9,16.3,15.5,30.2,29.2,30.9,30.4.9,1.7.7,4.9-1.2,15.6-4.3,25.1-7.4,42.5-9,51-2.9,16.1-3,17.5-.6,19.9a7.36,7.36,0,0,0,4.1,2.1c1.2,0,8.9-3.5,17.3-7.9,32.2-16.6,59.3-30.1,60.6-30.1,1.1,0,24.4,11.5,63.7,31.6,10.3,5.2,13.7,6.5,15.8,6,4.1-1,5-4.2,3.6-12.3-.6-3.7-2.2-12.9-3.5-20.3s-3.1-17.6-4-22.5c-5.4-30.2-5.5-30.7-4.2-33,.7-1.2,12.5-12.9,26.2-25.9,37.8-35.9,36.8-34.7,32.8-39.5-1.9-2.2-3.9-2.5-63.8-10.7-10.4-1.4-20.1-3-21.5-3.5-2-.8-6-7.9-20.5-36.5-9.9-19.5-19-36.6-20.2-38C133.63-.48,130.93-.78,128.13,1.62Z"/></g></g></svg>