<svg xmlns="http://www.w3.org/2000/svg" viewBox="0 0 87.64 87.69"><title>Ресурс 2</title><g id="Слой_2" data-name="Слой 2"><g id="Слой_1-2" data-name="Слой 1"><path d="M33.3,1.28C11.3,6.78-3.2,28.78.6,50.88c4.1,24,26.6,40.2,50.2,36.2A43.74,43.74,0,0,0,87,50.88C92.3,20.28,63.6-6.22,33.3,1.28Zm26.9,6.4c9.1,4.2,14.9,10,19.4,19,3.5,7.2,3.7,8.1,3.7,17.2s-.2,10-3.7,17.2c-4.5,9.1-10.3,14.7-19.6,19.1-6.1,2.9-7.6,3.2-16.2,3.2s-10.1-.3-16.2-3.2c-9.3-4.4-15.1-10-19.6-19.1C4.5,53.88,4.3,53,4.3,44c0-8.7.3-10.2,3.2-16.3,4-8.5,9.7-14.7,17.2-18.6,7.8-4.2,12.2-5.2,21.3-4.8A32.67,32.67,0,0,1,60.2,7.68Z"/><path d="M38.8,33.88c-11.3,6.6-20.6,12.4-20.8,13-.4,1,7.8,5,10.1,5,.7,0,4.8-3.2,9.2-7.1,9.7-8.5,16.4-13.9,14.8-11.9-.6.8-5,6.2-9.7,12-8.4,10.2-8.6,10.6-8.6,15.7,0,2.9.4,5.3.9,5.3s2.4-1.8,4.3-3.9l3.3-3.9,6,2.4c3.2,1.3,6.2,2.1,6.6,1.7,1-1.2,7-38.3,6.4-39.4-.4-.5-.9-.9-1.3-.8S50.1,27.38,38.8,33.88Z"/></g></g></svg>