<svg xmlns="http://www.w3.org/2000/svg" viewBox="0 0 208.2 90.88"><title>Ресурс 1</title><g id="Слой_2" data-name="Слой 2"><g id="Слой_1-2" data-name="Слой 1"><path d="M4,.58c-1.9.7-4,3.3-4,4.9a4.81,4.81,0,0,0,1.6,2.8c1.3,1.4,5.4,1.6,28.9,1.6H58l1.5-2.4c1.9-2.8,1-5.4-2.2-6.7C54.8-.12,6.6-.32,4,.58Z"/><path d="M73,1.18c-6.6,2.3-7,4.3-7,37,0,24,.3,29.4,1.5,32.2,1.8,3.7,5.1,5.5,10,5.5,3.1,0,3.7.4,5,3.7,3.1,7.4,8.8,11.3,16.5,11.3,7.9,0,15-5.2,16.5-12l.7-3h46.6l.5,2.9c.8,3.7,4.9,8.5,9.1,10.5s11.8,2.1,15.5.1c3.6-1.8,7.9-6.9,8.7-10.1.4-1.7,1.9-3,4.3-4,5.9-2.4,6.5-4.1,6.9-20.4l.4-14.5-4.7-11c-7.4-17.4-9-18.5-26.9-18.5H164.2l-2-3.4C158,.38,158,.38,115,.18,86.8,0,75.6.28,73,1.18Zm80,10.7c1.9,1.9,2,3.3,2,28v26H114.9l-2.6-3A16.68,16.68,0,0,0,99,56.58c-5.2-.1-12.1,3.2-14.5,7-1.1,1.7-2.5,2.3-5,2.3H76v-56h37.5C149.7,9.88,151.1,10,153,11.88Zm33.7,8.6c2,.6,5.8,7,7.7,13.1l.7,2.3H165v-16h9.8A87.45,87.45,0,0,1,186.7,20.48ZM198,55.88c0,8-.3,10-1.4,10a2.43,2.43,0,0,1-2-1.8c-.8-2.2-6.3-6-10.7-7.2-5.4-1.6-12.6.6-16.9,5.2l-2,2.2V45.88h33ZM102.4,67c4.6,2.1,5.3,9.4,1.3,12.8-2.1,1.7-7.2,1.7-9.3,0-4.2-3.4-3.7-10.5.9-12.7C98.2,65.68,99.4,65.68,102.4,67Zm80.9,0a9.42,9.42,0,0,1,4.7,7.4c0,.8-1.1,2.6-2.3,4.1-4.4,5.1-11.5,2.9-13.1-3.9-.5-2.3-.1-3.4,2.3-5.7C178.1,65.58,179.6,65.28,183.3,67Z"/><path d="M35,24.88c-2.5,2.5-2.5,4.2-.2,6.3,1.5,1.4,4,1.7,12.5,1.7,9.8,0,10.7-.2,12.1-2.2,2-2.9,2-3.4-.4-5.8-1.7-1.7-3.3-2-12-2S36.7,23.18,35,24.88Z"/><path d="M22.2,45.08c-1.5,1.5-1.5,5.1,0,6.6s34.5,1.7,36.7.3a5.33,5.33,0,0,0,0-7.2C56.7,43.38,23.6,43.68,22.2,45.08Z"/><path d="M13.4,66.88c-3,1.2-3.7,3.9-1.9,6.6l1.5,2.4H58l1.5-2.4c1.9-2.8,1-5.4-2.2-6.7C54.3,65.68,16.3,65.68,13.4,66.88Z"/></g></g></svg>