<svg xmlns="http://www.w3.org/2000/svg" viewBox="0 0 352 379.75"><title>Ресурс 1</title><g id="Слой_2" data-name="Слой 2"><g id="Слой_1-2" data-name="Слой 1"><path d="M140.5,1.12c-21.1,5.2-32.5,21.5-32.5,46.3v7.3H20.5l-5.1,2.4a31.19,31.19,0,0,0-8.7,6.7C1.1,70.32,0,75.42,0,94.62c0,25.8,1.3,27.1,25.7,27.1H41l.2,114.2.3,114.3,3.3,6.4a42.21,42.21,0,0,0,29,22c7.4,1.5,197,1.5,204.4,0a42.21,42.21,0,0,0,29-22l3.3-6.4.3-114.3.2-114.2h15.3c24.4,0,25.7-1.3,25.7-27.1,0-19.1-1.1-24.3-6.5-30.6a30.62,30.62,0,0,0-8.7-6.7l-5.2-2.6H244v-7.3c0-21.8-8.9-37.3-25.6-44.3L211.5.22l-33-.2C154.6-.08,144.1.12,140.5,1.12Zm69.3,27.6c5.7,3.5,7.3,7.3,7,17l-.3,8.5h-81l-.3-8.5c-.3-9.7,1.3-13.5,7-17,3.1-1.9,5.1-2,33.8-2S206.7,26.82,209.8,28.72Zm115.2,59v7H27v-14H325Zm-40,143.7c0,122.5.5,114.1-6.9,119l-3.4,2.3H77.3l-3.4-2.3c-7.4-4.9-6.9,3.5-6.9-119V121.72H285Z"/><path d="M116.1,164.52a17.51,17.51,0,0,0-5.5,4.5c-2.1,2.8-2.1,4-2.4,64.5-.2,33.9,0,63.7.3,66.1,1.4,9.2,10.2,14.1,18.7,10.3,8.2-3.6,7.8-.3,7.8-72.7,0-71.5.3-68.8-7.1-72.5C123.2,162.22,120.5,162.22,116.1,164.52Z"/><path d="M170.1,164.42a15.71,15.71,0,0,0-5.2,4.7c-1.8,2.9-1.9,6.4-1.9,68.1s.1,65.1,1.9,68.1c2,3.2,7.4,6.4,11.1,6.4s9.1-3.2,11.1-6.4c1.8-3,1.9-6.3,1.9-68.1s-.1-65.1-1.9-68.1c-2-3.3-7.5-6.4-11.3-6.4A17.69,17.69,0,0,0,170.1,164.42Z"/><path d="M223.9,164.62c-7.1,3.9-6.9,1.5-6.9,72.6,0,72.1-.4,68.7,7.6,72.6,8.4,4,17.5-.8,18.9-10.2.3-2.4.5-32.1.3-65.9-.3-56.9-.4-61.8-2.1-64.3A13.55,13.55,0,0,0,223.9,164.62Z"/></g></g></svg>