<svg xmlns="http://www.w3.org/2000/svg" viewBox="0 0 106.51 117.56"><defs><style>.cls-1{fill:#fff;}</style></defs><title>Ресурс 2</title><g id="Слой_2" data-name="Слой 2"><g id="Слой_1-2" data-name="Слой 1"><path class="cls-1" d="M46.25.62c-7.8,2.5-15.7,9.9-18.1,16.7a29.25,29.25,0,0,0,1.4,21c4.8,9.4,13,14.4,23.7,14.4s18.9-5,23.7-14.4a29.25,29.25,0,0,0,1.4-21c-1.7-4.9-8.3-12.1-13.5-14.8C60.45.32,50.35-.78,46.25.62Zm16.1,12.6c6.8,4.4,9.1,15,4.7,21.5-3.9,5.7-7.2,7.5-13.8,7.5s-9.9-1.8-13.7-7.5c-4.3-6.2-2.3-16.7,3.9-21.1S56,9,62.35,13.22Z"/><path class="cls-1" d="M41.65,60.12C19.05,65.32,1,86.52.05,108.82c-.2,5,.1,6.4,1.7,7.5,4.4,3.2,8.5-.1,8.5-6.7,0-11.4,8.6-26.1,19.2-33,7.9-5,14.3-6.9,23.8-6.9s15.9,1.9,23.8,6.9c10.6,6.9,19.2,21.6,19.2,33,0,6.6,4.1,9.9,8.5,6.7,1.6-1.1,1.9-2.5,1.7-7.5-.5-12.9-6.8-25.8-17.4-35.7C76.85,61.62,57.85,56.42,41.65,60.12Z"/></g></g></svg>